# Blender v2.91.0 OBJ File: '90degTri.blend'
# www.blender.org
mtllib 90degTri.mtl
o Cube.001
v 0.000000 0.346799 1.000000
v -1.000000 0.346799 0.000000
v -1.000000 0.346799 1.000000
v 0.000000 0.346799 1.000000
v 0.000000 0.346799 1.000000
v 0.000000 0.000000 1.000000
v -1.000000 0.000000 0.000000
v -1.000000 0.000000 1.000000
v 0.000000 0.000000 1.000000
v 0.000000 0.000000 1.000000
vt 0.000000 0.000000
vt 0.000000 0.000000
vt 0.000000 0.000000
vt 0.000000 0.000000
vt 0.000000 0.000000
vt 0.000000 0.000000
vt 0.000000 0.000000
vt 0.000000 0.000000
vn 0.0000 -1.0000 0.0000
vn 1.0000 0.0000 0.0000
vn 0.0000 0.0000 -1.0000
vn -0.7071 0.0000 0.7071
usemtl Material.001
s off
f 3/1/1 2/2/1 1/3/1
f 3/1/2 8/4/2 7/5/2 2/2/2
f 3/1/3 5/6/3 10/7/3 8/4/3
f 2/2/4 7/5/4 10/7/4 5/6/4
usemtl Material
f 8/4/1 7/5/1 6/8/1
l 1 4
l 6 9
